<svg width="310" height="67" viewBox="0 0 310 67" fill="none" xmlns="http://www.w3.org/2000/svg">
<path d="M33.5 0L62.5118 50.25H4.48815L33.5 0Z" fill="#DDB400"/>
<path d="M69.912 49C69.624 49 69.464 48.808 69.464 48.52V27.08C69.464 26.792 69.624 26.6 69.912 26.6H76.376C81.464 26.6 84.024 29.544 84.024 33.736C84.024 37.928 81.464 40.872 76.376 40.872H73.048V48.52C73.048 48.808 72.856 49 72.568 49H69.912ZM73.048 37.672H76.216C78.584 37.672 80.568 36.744 80.568 33.736C80.568 30.728 78.584 29.8 76.216 29.8H73.048V37.672ZM94.3545 49.384C89.2345 49.384 85.9065 45.768 85.9065 41.096C85.9065 36.488 89.1065 32.936 93.8745 32.936C98.5785 32.936 101.299 36.488 101.299 40.392C101.299 41.768 101.01 42.44 99.8265 42.44H89.2665C89.6825 44.936 91.5385 46.6 94.6425 46.6C96.1785 46.6 97.4265 46.216 98.6745 45.384C98.8665 45.256 99.0585 45.288 99.1865 45.48L100.083 46.696C100.275 46.952 100.211 47.144 99.9545 47.4C98.5785 48.744 96.5625 49.384 94.3545 49.384ZM89.2345 39.944H98.2265C98.0345 37.384 96.3385 35.848 93.8745 35.848C91.4105 35.848 89.5865 37.352 89.2345 39.944ZM105.248 49C104.96 49 104.8 48.808 104.8 48.52V26.6C104.8 26.312 104.96 26.12 105.248 26.12H107.808C108.096 26.12 108.256 26.312 108.256 26.6V48.52C108.256 48.808 108.096 49 107.808 49H105.248ZM120.198 49.384C115.078 49.384 111.75 45.768 111.75 41.096C111.75 36.488 114.95 32.936 119.718 32.936C124.422 32.936 127.142 36.488 127.142 40.392C127.142 41.768 126.854 42.44 125.67 42.44H115.11C115.526 44.936 117.382 46.6 120.486 46.6C122.022 46.6 123.27 46.216 124.518 45.384C124.71 45.256 124.902 45.288 125.03 45.48L125.926 46.696C126.118 46.952 126.054 47.144 125.798 47.4C124.422 48.744 122.406 49.384 120.198 49.384ZM115.078 39.944H124.07C123.878 37.384 122.182 35.848 119.718 35.848C117.254 35.848 115.43 37.352 115.078 39.944ZM148.189 49.416C141.629 49.416 136.637 44.424 136.637 37.896C136.637 31.368 141.629 26.344 148.125 26.344C151.26 26.344 153.821 27.464 155.805 29.448C156.061 29.672 156.061 29.896 155.837 30.152L154.205 31.912C154.013 32.136 153.789 32.136 153.597 31.944C152.061 30.632 150.269 29.864 148.125 29.864C143.645 29.864 140.253 33.288 140.253 37.896C140.253 42.504 143.645 45.896 148.285 45.896C152.349 45.896 154.973 43.336 155.005 39.976H148.413C148.125 39.976 147.965 39.816 147.965 39.528V37.224C147.965 36.936 148.125 36.776 148.413 36.776H158.013C158.301 36.776 158.493 36.968 158.493 37.256V38.824C158.493 44.744 154.589 49.416 148.189 49.416ZM169.16 49.384C164.488 49.384 161.032 45.8 161.032 41.16C161.032 36.52 164.488 32.936 169.16 32.936C173.8 32.936 177.256 36.52 177.256 41.16C177.256 45.8 173.8 49.384 169.16 49.384ZM164.36 41.16C164.36 44.168 166.44 46.184 169.16 46.184C171.848 46.184 173.928 44.168 173.928 41.16C173.928 38.152 171.848 36.136 169.16 36.136C166.44 36.136 164.36 38.152 164.36 41.16ZM181.186 49C180.898 49 180.738 48.808 180.738 48.52V26.6C180.738 26.312 180.898 26.12 181.186 26.12H183.746C184.034 26.12 184.194 26.312 184.194 26.6V48.52C184.194 48.808 184.034 49 183.746 49H181.186ZM195.24 49.384C190.76 49.384 187.688 45.832 187.688 41.16C187.688 36.52 190.76 32.936 195.24 32.936C197.704 32.936 199.496 33.96 200.616 35.656V26.6C200.616 26.312 200.776 26.12 201.064 26.12H203.624C203.912 26.12 204.072 26.312 204.072 26.6V48.52C204.072 48.808 203.912 49 203.624 49H201.288C201 49 200.84 48.808 200.84 48.52L200.776 46.44C199.656 48.264 197.8 49.384 195.24 49.384ZM191.048 41.16C191.048 44.2 193.096 46.216 195.912 46.216C198.696 46.216 200.648 44.2 200.648 41.192C200.648 38.152 198.696 36.104 195.912 36.104C193.096 36.104 191.048 38.152 191.048 41.16ZM214.291 49C213.939 49 213.779 48.776 213.907 48.456L221.523 26.984C221.619 26.728 221.843 26.6 222.099 26.6H225.011C225.267 26.6 225.523 26.728 225.619 26.984L233.235 48.456C233.363 48.776 233.203 49 232.851 49H230.067C229.811 49 229.619 48.904 229.523 48.616L228.211 44.712H218.931L217.587 48.616C217.491 48.904 217.331 49 217.043 49H214.291ZM220.019 41.512H227.123L223.571 31.048L220.019 41.512ZM238.566 49C238.31 49 238.086 48.872 237.99 48.616L232.966 33.864C232.838 33.512 232.998 33.32 233.35 33.32H235.814C236.07 33.32 236.294 33.448 236.39 33.704L240.038 45.064L243.91 33.704C244.006 33.448 244.23 33.32 244.486 33.32H247.046C247.302 33.32 247.526 33.448 247.622 33.704L251.494 45.064L255.142 33.704C255.238 33.448 255.43 33.32 255.686 33.32H258.182C258.534 33.32 258.662 33.512 258.534 33.864L253.542 48.616C253.446 48.872 253.222 49 252.966 49H250.278C250.022 49 249.798 48.872 249.702 48.616L245.766 37.256L241.83 48.616C241.734 48.872 241.51 49 241.254 49H238.566ZM267.552 49.384C263.072 49.384 260 45.832 260 41.16C260 36.52 263.072 32.936 267.552 32.936C270.144 32.936 272 34.088 273.088 35.912L273.152 33.8C273.152 33.512 273.312 33.32 273.6 33.32H275.936C276.224 33.32 276.384 33.512 276.384 33.8V48.52C276.384 48.808 276.224 49 275.936 49H273.6C273.312 49 273.152 48.808 273.152 48.52L273.088 46.44C271.968 48.264 270.112 49.384 267.552 49.384ZM263.36 41.16C263.36 44.2 265.408 46.216 268.224 46.216C271.008 46.216 272.96 44.2 272.96 41.192C272.96 38.152 271.008 36.104 268.224 36.104C265.408 36.104 263.36 38.152 263.36 41.16ZM281.123 49C280.835 49 280.675 48.808 280.675 48.52V33.8C280.675 33.512 280.835 33.32 281.123 33.32H283.555C283.843 33.32 284.003 33.448 284.003 33.832L284.099 35.72C284.675 34.152 285.699 32.936 287.587 32.936C288.291 32.936 288.771 33.096 289.027 33.288C289.251 33.448 289.315 33.608 289.315 33.896V35.944C289.315 36.296 289.091 36.392 288.707 36.296C288.323 36.168 287.971 36.136 287.555 36.136C285.091 36.136 284.131 38.056 284.131 40.072V48.52C284.131 48.808 283.971 49 283.683 49H281.123ZM298.709 49.384C294.229 49.384 291.157 45.832 291.157 41.16C291.157 36.52 294.229 32.936 298.709 32.936C301.173 32.936 302.965 33.96 304.085 35.656V26.6C304.085 26.312 304.245 26.12 304.533 26.12H307.093C307.381 26.12 307.541 26.312 307.541 26.6V48.52C307.541 48.808 307.381 49 307.093 49H304.757C304.469 49 304.309 48.808 304.309 48.52L304.245 46.44C303.125 48.264 301.269 49.384 298.709 49.384ZM294.516 41.16C294.516 44.2 296.565 46.216 299.381 46.216C302.165 46.216 304.117 44.2 304.117 41.192C304.117 38.152 302.165 36.104 299.381 36.104C296.565 36.104 294.516 38.152 294.516 41.16Z" fill="#DDB400"/>
</svg>
